<svg xmlns="http://www.w3.org/2000/svg" xmlns:xlink="http://www.w3.org/1999/xlink" width="1396" height="208" viewBox="0 0 1396 208">
  <defs>
    <filter id="Tracé_57018" x="0" y="0" width="1396" height="208" filterUnits="userSpaceOnUse">
      <feOffset input="SourceAlpha"/>
      <feGaussianBlur stdDeviation="10" result="blur"/>
      <feFlood flood-opacity="0.161"/>
      <feComposite operator="in" in2="blur"/>
      <feComposite in="SourceGraphic"/>
    </filter>
  </defs>
  <g transform="matrix(1, 0, 0, 1, 0, 0)" filter="url(#Tracé_57018)">
    <g id="Tracé_57018-2" data-name="Tracé 57018" transform="translate(30 60)" fill="#fff">
      <path d="M 1312.006469726562 117.1650009155273 L 24.00650024414062 107.1650009155273 L 24.00316619873047 107.1650009155273 L 24 107.1650009155273 C 20.87233352661133 107.1650009155273 17.83883285522461 106.5526657104492 14.98333358764648 105.3450012207031 C 12.22500038146973 104.1781692504883 9.747500419616699 102.5078353881836 7.619833469390869 100.3801651000977 C 5.492166519165039 98.25250244140625 3.821833372116089 95.77500152587891 2.654999971389771 93.01667022705078 C 1.447333335876465 90.16116333007812 0.8349999785423279 87.12767028808594 0.8349999785423279 84 L 0.8349999785423279 24 C 0.8349999785423279 20.87233352661133 1.447333335876465 17.83883285522461 2.654999971389771 14.98333358764648 C 3.821833372116089 12.22500038146973 5.492166519165039 9.747500419616699 7.619833469390869 7.619833469390869 C 9.747500419616699 5.492166519165039 12.22500038146973 3.821833372116089 14.98333358764648 2.654999971389771 C 17.83883285522461 1.447333335876465 20.87233352661133 0.8349999785423279 24 0.8349999785423279 L 24.00966644287109 0.8349999785423279 L 24.01950073242188 0.8348333239555359 L 1312.01953125 -29.1651668548584 C 1315.135375976562 -29.16342353820801 1318.164794921875 -28.55111885070801 1321.016723632812 -27.34499931335449 C 1323.775024414062 -26.17816734313965 1326.25244140625 -24.50783348083496 1328.380126953125 -22.38016700744629 C 1330.5078125 -20.25250053405762 1332.17822265625 -17.77499961853027 1333.344970703125 -15.01666641235352 C 1334.552612304688 -12.16116619110107 1335.1650390625 -9.127666473388672 1335.1650390625 -6 L 1335.1650390625 94 C 1335.1650390625 97.12767028808594 1334.552612304688 100.1611633300781 1333.344970703125 103.0166702270508 C 1332.17822265625 105.7750015258789 1330.5078125 108.2525024414062 1328.380126953125 110.3801651000977 C 1326.25244140625 112.5078353881836 1323.775024414062 114.1781692504883 1321.016723632812 115.3450012207031 C 1318.162963867188 116.5519332885742 1315.131591796875 117.1642456054688 1312.005859375 117.1649932861328 L 1312.006469726562 117.1650009155273 Z" stroke="none"/>
      <path d="M 1312.016845703125 -28.32998657226562 L 1312.038818359375 -28.33049774169922 L 24 1.669998168945312 C 20.984619140625 1.669998168945312 18.060546875 2.260169982910156 15.3087158203125 3.424163818359375 C 12.6497802734375 4.548667907714844 10.26171875 6.15899658203125 8.2103271484375 8.210334777832031 C 6.1590576171875 10.26166534423828 4.5487060546875 12.64983367919922 3.4241943359375 15.30867004394531 C 2.2601318359375 18.06050109863281 1.6700439453125 20.98466491699219 1.6700439453125 24 L 1.6700439453125 84 C 1.6700439453125 87.01533508300781 2.2601318359375 89.93949890136719 3.4241943359375 92.69132995605469 C 4.5487060546875 95.35016632080078 6.1590576171875 97.73833465576172 8.2103271484375 99.78966522216797 C 10.26171875 101.8410034179688 12.6497802734375 103.4513320922852 15.3087158203125 104.5758361816406 C 18.060546875 105.7398376464844 20.984619140625 106.3300018310547 24 106.3300018310547 L 24.012939453125 106.3300018310547 L 1312.011840820312 116.3299865722656 C 1315.023071289062 116.3284759521484 1317.942993164062 115.7383422851562 1320.691284179688 114.5758361816406 C 1323.350219726562 113.4513320922852 1325.73828125 111.8410034179688 1327.789672851562 109.789665222168 C 1329.840942382812 107.7383346557617 1331.451293945312 105.3501663208008 1332.575805664062 102.6913299560547 C 1333.739868164062 99.93949890136719 1334.329956054688 97.01533508300781 1334.329956054688 94 L 1334.329956054688 -6 C 1334.329956054688 -9.015335083007812 1333.739868164062 -11.93949890136719 1332.575805664062 -14.69132995605469 C 1331.451293945312 -17.35016632080078 1329.840942382812 -19.73833465576172 1327.789672851562 -21.78966522216797 C 1325.73828125 -23.84100341796875 1323.350219726562 -25.45133209228516 1320.691284179688 -26.57583618164062 C 1317.944580078125 -27.73770141601562 1315.026245117188 -28.32782745361328 1312.016845703125 -28.32998657226562 M 1312 -30 C 1325.2548828125 -30 1336 -19.25483703613281 1336 -6 L 1336 94 C 1336 107.2548370361328 1325.2548828125 118 1312 118 L 24 108 C 10.7451171875 108 0 97.25483703613281 0 84 L 0 24 C 0 10.74516296386719 10.7451171875 0 24 0 L 1312 -30 Z" stroke="none" fill="rgb(133, 162, 106)"/>
    </g>
  </g>
</svg>
